<svg id="svg" version="1.1" xmlns="http://www.w3.org/2000/svg" xmlns:xlink="http://www.w3.org/1999/xlink" width="400" height="129.95391705069125" viewBox="0, 0, 400,129.95391705069125"><g id="svgg"><path id="path0" d="M39.333 12.973 C 33.783 14.453,29.007 18.518,27.524 23.024 C 25.101 30.385,26.043 36.232,30.525 41.659 C 31.012 42.248,33.541 44.500,33.716 44.500 C 33.751 44.500,34.374 44.857,35.101 45.294 C 36.553 46.166,36.780 46.248,39.896 47.014 C 42.632 47.686,45.587 47.657,48.000 46.933 C 48.779 46.699,49.571 46.506,49.759 46.504 C 50.161 46.499,52.566 45.335,53.163 44.856 L 53.575 44.525 58.623 49.584 L 63.671 54.643 63.318 55.530 C 63.124 56.018,62.906 56.792,62.833 57.250 C 62.760 57.708,62.573 58.646,62.418 59.333 C 62.078 60.836,62.153 64.374,62.555 65.833 C 62.694 66.337,62.890 67.164,62.991 67.669 C 63.091 68.175,63.436 69.102,63.757 69.728 L 64.341 70.868 59.663 75.524 L 54.986 80.180 54.554 79.840 C 54.316 79.653,54.049 79.500,53.960 79.500 C 53.871 79.500,53.525 79.284,53.191 79.019 C 50.253 76.693,44.080 75.729,39.667 76.908 C 38.429 77.239,37.238 77.548,37.019 77.595 C 34.061 78.236,28.646 83.613,27.524 87.024 C 25.740 92.443,25.718 95.109,27.412 100.457 C 28.615 104.256,33.486 109.206,37.083 110.286 C 41.648 111.656,44.938 111.851,48.000 110.933 C 48.779 110.699,49.569 110.506,49.755 110.504 C 50.190 110.499,52.350 109.465,53.064 108.920 C 53.367 108.689,53.691 108.500,53.784 108.500 C 54.606 108.500,58.348 104.217,59.536 101.917 C 61.052 98.981,61.749 94.130,61.099 91.033 C 60.971 90.419,60.774 89.470,60.663 88.925 C 60.552 88.379,60.212 87.387,59.908 86.719 L 59.354 85.504 64.079 80.782 L 68.804 76.060 69.610 76.645 C 75.273 80.756,84.735 80.624,90.250 76.357 C 91.639 75.282,93.841 73.020,94.099 72.403 C 94.217 72.121,94.437 71.788,94.588 71.663 C 95.851 70.615,97.250 65.623,97.250 62.167 C 97.250 58.641,95.777 53.517,94.447 52.417 C 94.337 52.325,94.158 52.051,94.050 51.807 C 93.839 51.329,91.209 48.500,90.976 48.500 C 90.898 48.500,90.384 48.137,89.834 47.693 C 85.704 44.366,77.452 43.592,72.521 46.070 C 72.097 46.283,71.568 46.513,71.345 46.582 C 71.122 46.652,70.234 47.229,69.372 47.866 C 67.833 49.003,67.797 49.019,67.462 48.721 C 67.274 48.553,65.188 46.485,62.827 44.124 L 58.535 39.831 59.422 38.124 C 60.275 36.482,60.496 35.790,61.071 32.954 C 61.396 31.347,61.410 28.515,61.099 27.033 C 60.971 26.419,60.777 25.467,60.669 24.917 C 60.114 22.086,55.432 15.500,53.975 15.500 C 53.877 15.500,53.525 15.285,53.191 15.022 C 50.159 12.634,44.011 11.725,39.333 12.973 M219.750 23.488 C 218.655 23.947,218.750 20.999,218.750 54.421 L 218.750 84.473 219.154 84.903 L 219.558 85.333 225.681 85.333 L 231.804 85.333 232.235 84.821 L 232.667 84.308 232.667 78.564 C 232.667 72.468,232.684 72.330,233.522 71.667 C 233.580 71.621,234.190 70.893,234.878 70.049 L 236.129 68.515 236.731 69.491 C 237.062 70.028,237.333 70.548,237.333 70.647 C 237.333 70.746,237.600 71.244,237.927 71.754 C 238.253 72.264,238.858 73.335,239.271 74.133 C 240.203 75.934,240.914 77.186,241.159 77.458 C 241.262 77.573,241.304 77.667,241.253 77.667 C 241.135 77.667,241.801 78.999,242.085 79.333 C 242.203 79.471,242.580 80.146,242.923 80.833 C 243.782 82.553,245.160 84.873,245.472 85.125 C 245.669 85.284,247.300 85.333,252.336 85.333 L 258.942 85.333 259.320 84.930 C 260.061 84.142,258.922 81.179,257.143 79.269 C 256.973 79.087,256.833 78.818,256.833 78.673 C 256.833 78.528,256.620 78.148,256.360 77.830 C 256.099 77.511,255.420 76.472,254.851 75.521 C 254.281 74.570,253.696 73.673,253.551 73.527 C 253.406 73.382,253.191 73.033,253.074 72.752 C 252.956 72.472,252.460 71.644,251.970 70.912 C 251.481 70.181,250.931 69.297,250.748 68.947 C 250.566 68.597,250.304 68.185,250.167 68.030 C 249.871 67.698,249.000 66.376,249.000 66.259 C 249.000 66.214,248.644 65.643,248.208 64.991 C 247.773 64.338,247.211 63.422,246.960 62.955 C 246.709 62.488,246.440 62.063,246.361 62.011 C 246.283 61.959,245.827 61.263,245.348 60.463 L 244.477 59.010 245.524 57.630 C 246.099 56.871,246.667 56.151,246.785 56.030 C 246.903 55.909,247.000 55.753,247.000 55.684 C 247.000 55.616,247.450 55.040,247.999 54.405 C 248.549 53.770,248.999 53.173,248.999 53.079 C 249.000 52.985,249.238 52.647,249.529 52.329 C 250.068 51.739,251.871 49.393,253.092 47.691 C 253.464 47.174,254.008 46.490,254.301 46.171 C 254.594 45.853,254.833 45.511,254.833 45.411 C 254.833 45.311,255.043 45.009,255.298 44.740 C 256.542 43.429,256.917 42.788,256.917 41.971 C 256.917 40.532,257.188 40.590,250.270 40.536 C 243.695 40.484,243.544 40.502,243.065 41.391 C 242.892 41.712,242.487 42.288,242.167 42.671 C 241.846 43.053,241.433 43.608,241.250 43.904 C 240.910 44.454,239.841 45.936,238.500 47.718 C 238.088 48.266,237.537 49.057,237.276 49.475 C 237.016 49.893,236.707 50.314,236.590 50.410 C 236.474 50.505,236.020 51.108,235.581 51.750 C 235.143 52.392,234.576 53.183,234.321 53.509 C 234.066 53.834,233.590 54.507,233.262 55.005 L 232.667 55.909 232.667 40.207 L 232.667 24.505 232.181 23.961 L 231.694 23.417 225.889 23.382 C 222.696 23.363,219.933 23.411,219.750 23.488 M260.917 23.487 C 259.825 23.947,259.917 21.551,259.917 49.726 L 259.917 75.083 260.308 76.500 C 260.523 77.279,260.755 78.179,260.822 78.500 C 261.176 80.187,263.548 82.770,265.759 83.877 C 268.271 85.134,270.468 85.562,275.524 85.778 C 279.483 85.947,279.390 86.094,279.304 79.833 L 279.250 75.917 278.781 75.455 C 278.402 75.082,278.069 74.960,277.044 74.817 C 275.502 74.603,274.558 74.245,274.287 73.772 C 274.130 73.498,274.064 67.764,274.000 48.879 L 273.917 24.341 273.455 23.879 L 272.993 23.417 267.121 23.381 C 263.892 23.362,261.100 23.409,260.917 23.487 M282.896 23.444 C 282.701 23.485,282.363 23.707,282.146 23.939 L 281.750 24.360 281.750 29.167 L 281.750 33.973 282.154 34.403 L 282.558 34.833 288.750 34.833 L 294.942 34.833 295.346 34.403 L 295.750 33.973 295.750 29.157 L 295.750 24.341 295.288 23.879 L 294.826 23.417 289.038 23.394 C 285.855 23.381,283.091 23.404,282.896 23.444 M116.147 27.917 C 115.526 28.255,115.500 28.531,115.500 34.842 L 115.500 40.475 113.087 40.529 C 109.685 40.605,109.917 40.261,109.917 45.251 L 109.917 49.159 110.379 49.621 C 110.832 50.075,110.881 50.084,113.166 50.141 L 115.492 50.198 115.545 63.058 C 115.574 70.130,115.652 76.203,115.719 76.552 C 116.160 78.878,118.475 82.022,120.540 83.099 C 124.228 85.023,125.712 85.333,131.228 85.333 L 135.304 85.333 135.735 84.821 L 136.167 84.308 136.167 79.907 L 136.167 75.505 135.681 74.961 L 135.195 74.417 133.056 74.325 C 130.833 74.230,129.850 73.959,129.555 73.362 C 129.479 73.209,129.395 67.932,129.370 61.636 L 129.322 50.188 132.259 50.136 L 135.195 50.083 135.681 49.539 L 136.167 48.995 136.167 45.156 L 136.167 41.318 135.758 40.909 C 135.353 40.505,135.312 40.500,132.341 40.500 L 129.333 40.500 129.333 34.597 C 129.333 28.179,129.342 28.266,128.655 27.911 C 127.969 27.556,116.800 27.562,116.147 27.917 M155.520 40.013 C 151.437 40.407,147.055 41.930,145.250 43.583 C 144.883 43.919,144.302 44.376,143.958 44.599 C 143.615 44.822,143.333 45.065,143.333 45.140 C 143.333 45.214,142.936 45.734,142.449 46.296 C 141.963 46.857,141.466 47.526,141.344 47.783 C 141.222 48.040,140.992 48.512,140.832 48.833 C 139.529 51.448,139.116 54.415,139.947 55.195 L 140.360 55.583 146.329 55.583 C 152.747 55.583,152.996 55.550,153.002 54.683 C 153.011 53.039,155.507 51.419,157.995 51.440 C 160.957 51.466,161.834 52.505,161.833 55.989 L 161.833 57.583 157.541 57.590 C 154.190 57.594,152.903 57.660,151.667 57.887 C 150.796 58.048,149.858 58.216,149.583 58.261 C 142.845 59.372,139.274 64.417,139.271 72.833 C 139.269 78.488,140.786 81.598,144.707 83.973 C 148.998 86.572,157.675 86.409,160.750 83.672 C 161.585 82.929,161.784 82.945,161.876 83.766 C 161.929 84.234,162.106 84.675,162.343 84.927 L 162.725 85.333 168.848 85.333 L 174.970 85.333 175.402 84.821 L 175.833 84.308 175.831 68.529 C 175.828 51.397,175.867 52.186,174.888 49.350 C 173.590 45.587,169.102 41.696,165.083 40.848 C 162.408 40.284,161.561 40.143,159.990 40.001 C 158.014 39.823,157.477 39.825,155.520 40.013 M194.962 40.003 C 190.760 40.404,186.510 42.029,184.225 44.106 C 183.937 44.369,183.511 44.714,183.279 44.874 C 181.204 46.303,179.582 50.200,179.586 53.750 C 179.595 61.070,184.366 65.149,196.238 67.985 C 200.761 69.066,202.731 71.907,200.221 73.729 C 197.051 76.029,192.799 74.818,192.229 71.453 C 192.010 70.162,192.032 70.167,185.647 70.167 L 180.005 70.167 179.461 70.654 C 177.861 72.086,179.746 77.765,182.840 80.832 C 188.874 86.815,201.497 87.598,208.667 82.434 C 210.890 80.833,213.300 77.924,213.776 76.268 C 214.871 72.452,214.921 70.890,214.041 67.917 C 213.385 65.704,211.681 62.936,210.524 62.206 C 210.282 62.054,209.804 61.695,209.463 61.410 C 208.307 60.445,204.023 58.548,202.325 58.249 C 202.024 58.195,200.383 57.702,198.680 57.151 C 196.977 56.601,195.294 56.064,194.940 55.959 C 191.994 55.083,192.320 51.639,195.410 51.000 C 198.055 50.454,200.366 51.618,200.732 53.682 C 200.791 54.011,201.031 54.461,201.266 54.682 L 201.693 55.083 207.236 55.131 C 214.789 55.197,214.544 55.374,213.685 50.458 C 212.563 44.037,203.824 39.157,194.962 40.003 M322.833 39.996 C 321.758 40.127,319.160 40.717,318.415 41.000 C 318.202 41.082,317.500 41.524,316.855 41.984 L 315.683 42.821 315.633 41.873 C 315.558 40.444,315.804 40.491,308.631 40.541 C 303.012 40.580,302.487 40.608,302.214 40.881 C 301.734 41.361,301.754 84.452,302.234 84.983 C 302.546 85.327,302.660 85.333,308.747 85.333 L 314.942 85.333 315.298 84.954 L 315.655 84.574 315.702 69.329 L 315.750 54.083 316.129 53.250 C 316.976 51.389,319.905 50.788,322.107 52.023 C 323.605 52.864,323.494 51.552,323.542 69.054 L 323.583 84.473 323.987 84.903 L 324.391 85.333 330.587 85.333 C 336.673 85.333,336.787 85.327,337.099 84.982 C 337.516 84.522,337.603 49.475,337.191 47.873 C 336.801 46.356,334.285 42.667,333.640 42.667 C 333.572 42.667,333.327 42.490,333.094 42.274 C 332.530 41.752,330.793 40.835,330.213 40.754 C 329.958 40.718,329.150 40.540,328.417 40.357 C 326.859 39.969,324.373 39.809,322.833 39.996 M358.083 40.000 C 353.579 40.399,349.586 41.931,347.034 44.238 C 346.241 44.955,345.172 46.088,345.169 46.215 C 345.168 46.288,345.012 46.513,344.823 46.715 C 344.317 47.256,343.339 49.321,343.248 50.038 C 343.205 50.380,343.056 51.308,342.918 52.102 C 342.558 54.166,342.549 71.581,342.907 73.615 C 343.040 74.366,343.195 75.304,343.253 75.699 C 343.554 77.747,345.884 80.869,348.417 82.616 C 353.721 86.274,363.476 86.934,369.667 84.053 C 371.910 83.009,371.899 83.015,372.433 82.552 C 372.699 82.322,373.217 81.916,373.583 81.651 C 376.954 79.212,379.666 72.257,377.872 70.653 L 377.328 70.167 371.349 70.167 C 364.422 70.167,364.990 70.020,364.171 72.023 C 363.252 74.272,361.136 74.988,358.381 73.981 C 356.753 73.386,356.759 73.398,356.691 70.334 L 356.632 67.676 367.062 67.630 L 377.493 67.583 377.955 67.121 L 378.417 66.659 378.410 59.621 C 378.402 51.626,378.365 51.340,376.963 48.500 C 375.942 46.430,372.478 42.667,371.595 42.667 C 371.476 42.667,371.194 42.522,370.969 42.345 C 370.434 41.924,367.729 40.807,367.085 40.742 C 366.809 40.714,366.096 40.576,365.500 40.435 C 363.356 39.930,360.654 39.771,358.083 40.000 M282.250 40.898 L 281.750 41.302 281.750 62.887 L 281.750 84.473 282.154 84.903 L 282.558 85.333 288.750 85.333 L 294.942 85.333 295.346 84.903 L 295.750 84.473 295.750 62.908 L 295.750 41.343 295.371 40.963 C 294.991 40.583,294.990 40.583,288.871 40.539 L 282.750 40.495 282.250 40.898 M362.818 51.971 C 364.119 52.611,364.325 53.143,364.330 55.875 L 364.333 58.000 360.481 58.000 L 356.630 58.000 356.702 55.625 C 356.789 52.792,356.878 52.565,358.134 51.960 C 359.679 51.216,361.291 51.220,362.818 51.971 M161.808 69.972 C 161.721 74.175,160.728 75.406,157.433 75.396 C 152.191 75.381,151.550 68.867,156.667 67.607 C 158.297 67.206,158.291 67.207,160.142 67.186 L 161.867 67.167 161.808 69.972 " stroke="none" fill="#1c84fc" fill-rule="evenodd"></path><path id="path1" d="" stroke="none" fill="#2084fc" fill-rule="evenodd"></path><path id="path2" d="" stroke="none" fill="#2084fc" fill-rule="evenodd"></path><path id="path3" d="" stroke="none" fill="#2084fc" fill-rule="evenodd"></path><path id="path4" d="" stroke="none" fill="#2084fc" fill-rule="evenodd"></path></g></svg>